<svg width="144" height="144" viewBox="0 0 144 144" xmlns="http://www.w3.org/2000/svg">
  <!-- Background Circle -->
  <circle cx="72" cy="72" r="72" fill="#2563eb"/>
  
  <!-- Medical Cross Background -->
  <circle cx="72" cy="72" r="60" fill="#3b82f6" opacity="0.8"/>
  
  <!-- Workflow Arrow Path -->
  <path d="M30 45 L50 45 L50 35 L75 50 L50 65 L50 55 L30 55 Z" fill="white" stroke="none"/>
  <path d="M75 65 L95 65 L95 55 L120 70 L95 85 L95 75 L75 75 Z" fill="white" stroke="none"/>
  <path d="M45 80 L65 80 L65 70 L90 85 L65 100 L65 90 L45 90 Z" fill="white" stroke="none"/>
  
  <!-- Medical Cross -->
  <rect x="67" y="25" width="10" height="40" fill="white" rx="2"/>
  <rect x="52" y="40" width="40" height="10" fill="white" rx="2"/>
  
  <!-- Gear/Automation Symbol -->
  <g transform="translate(95, 105) scale(0.7)">
    <circle cx="15" cy="15" r="8" fill="none" stroke="white" stroke-width="2"/>
    <circle cx="15" cy="15" r="3" fill="white"/>
    <path d="M15 2 L17 8 L23 8 L18 12 L20 18 L15 15 L10 18 L12 12 L7 8 L13 8 Z" fill="white"/>
  </g>
  
  <!-- Data Flow Dots -->
  <circle cx="40" cy="30" r="2" fill="white" opacity="0.8"/>
  <circle cx="50" cy="25" r="2" fill="white" opacity="0.6"/>
  <circle cx="95" cy="40" r="2" fill="white" opacity="0.8"/>
  <circle cx="105" cy="35" r="2" fill="white" opacity="0.6"/>
  <circle cx="75" cy="110" r="2" fill="white" opacity="0.8"/>
  <circle cx="85" cy="115" r="2" fill="white" opacity="0.6"/>
  
  <!-- Border -->
  <circle cx="72" cy="72" r="71" fill="none" stroke="white" stroke-width="2" opacity="0.3"/>
</svg>